<svg version="1.2" xmlns="http://www.w3.org/2000/svg" viewBox="0 0 1122 1122" width="1122" height="1122">
	<title>62884-ai-svg</title>
	<style>
		.s0 { fill: #ffffff } 
	</style>
	<g id="Object">
		<g id="&lt;Group&gt;">
			<path id="&lt;Compound Path&gt;" fill-rule="evenodd" class="s0" d="m740.3 541.5c19.1-30.6 33.2-65.4 41.8-103.2l1.1-5 4.8-1.6c25-8.5 44.9-4.1 52.6 10.2 5.7 10.6 4 25.9-4.7 43-8.6 16.7-23 33.4-40.5 46.9-15 11.6-30.6 19.6-45.2 23.3l-21.9 5.6zm28.7-13.7c4.7-2.8 9.9-6.2 15.3-10.4 15.5-11.9 28.1-26.4 35.4-40.8 6.8-13.3 6.9-22.4 4.9-26.1-2.7-5.1-13-6.6-26-3.1-6.9 28.6-16.8 55.5-29.6 80.4z"/>
			<path id="&lt;Compound Path&gt;" fill-rule="evenodd" class="s0" d="m320.4 378.4c-0.6-9.5 2.7-18.8 8.8-25.3 5.3-5.6 12.2-8.7 19.4-8.7h432.1c7.2 0 14.1 3.1 19.4 8.7 6.2 6.6 9.4 15.8 8.8 25.3q-0.5 7.9-1.3 15.9c26.5-2.2 48 7.7 58.7 27.8 20.3 37.8-3.8 96.8-56.2 137.1-23.9 18.4-50.1 29.5-73.6 31.2-3.4 0.3-6.7 0.3-10.1 0.2-44.7 50.6-102 78.4-161.7 78.4-62.5 0-122-30.2-167.5-85.1-44.8-54-72-126.9-76.8-205.5zm18.1-1.1c9.3 153.4 108.7 273.5 226.2 273.5 55.7 0 109.3-26.8 150.9-75.5l3.2-3.7 4.7 0.5c4 0.5 7.7 0.5 11.7 0.2 20-1.4 42.7-11.2 63.8-27.5 43.9-33.8 66.9-85 51.3-114.2-8.4-15.7-27.1-21.8-51.2-16.7l-12.6 2.7 1.7-12.8c1.1-8.8 2-17.8 2.5-26.5 0.3-4.5-1.1-8.9-3.8-11.8-1.3-1.3-3.4-2.9-6.2-2.9h-432.1c-2.8 0-4.9 1.6-6.1 2.9-2.8 2.9-4.2 7.3-4 11.8z"/>
			<path id="&lt;Path&gt;" class="s0" d="m368.4 1016.7c0 8.1 6.5 14.7 14.6 14.7 3.7 0.1 7.3-1.4 9.9-3.8l6.8 7c-4.4 4.1-10.3 6.6-16.8 6.6-13.4-0.1-24.3-11.1-24.2-24.5 0.1-13.5 11.1-24.3 24.5-24.2 6.5 0.1 12.4 2.7 16.8 6.9l-7 6.9c-2.5-2.5-6-4-9.8-4-8.1-0.1-14.7 6.4-14.8 14.4z"/>
			<path id="&lt;Compound Path&gt;" fill-rule="evenodd" class="s0" d="m425.4 1041.5c-13.4 0-24.3-10.9-24.3-24.3 0-13.5 10.9-24.4 24.3-24.4 13.5 0 24.4 10.9 24.4 24.4 0 13.4-10.9 24.3-24.4 24.3zm14.6-24.3c0-8.1-6.5-14.6-14.6-14.6-8.1 0-14.6 6.5-14.6 14.6 0 8.1 6.5 14.6 14.6 14.6 8.1 0 14.6-6.5 14.6-14.6z"/>
			<path id="&lt;Path&gt;" class="s0" d="m454.5 993.1l29.3 0.2-0.1 9.7-19.6-0.1-0.1 9.7 19.6 0.1v9.8l-19.7-0.2-0.1 19.5-9.7-0.1z"/>
			<path id="&lt;Path&gt;" class="s0" d="m488.3 993.3l29.3 0.2v9.8l-19.7-0.1-0.1 9.6 19.7 0.2-0.1 9.8-19.6-0.2-0.2 19.5-9.7-0.1z"/>
			<path id="&lt;Path&gt;" class="s0" d="m522.1 993.6l29.4 0.2-0.1 9.8-19.6-0.2-0.1 9.7 19.6 0.2-0.1 9.7-19.6-0.1-0.1 9.7 19.7 0.1-0.1 9.8-29.3-0.3z"/>
			<path id="&lt;Path&gt;" class="s0" d="m556 993.8l29.3 0.3-0.1 9.7-19.6-0.1-0.1 9.7 19.7 0.1-0.1 9.8-19.7-0.2v9.7l19.6 0.2-0.1 9.7-29.3-0.2z"/>
			<path id="&lt;Path&gt;" class="s0" d="m628.3 994.4l37.1 0.3v9.7l-13.7-0.1-0.3 38.9h-9.8l0.3-38.9-13.6-0.2z"/>
			<path id="&lt;Compound Path&gt;" fill-rule="evenodd" class="s0" d="m692.2 1043.5c-13.5 0-24.4-10.8-24.4-24.3 0-13.5 10.9-24.3 24.4-24.3 13.4 0 24.3 10.8 24.3 24.3 0 13.5-10.9 24.3-24.3 24.3zm14.5-24.3c0-8-6.5-14.6-14.6-14.6-8 0-14.6 6.6-14.6 14.6 0 8.1 6.6 14.6 14.6 14.6 8.1 0 14.6-6.5 14.6-14.6z"/>
			<path id="&lt;Path&gt;" class="s0" d="m788.9 1019q0 0.4 0 0.9c-0.1 13.5-11.1 24.3-24.5 24.2-13.4-0.1-24.2-11.1-24.1-24.5 0.1-13.4 11.1-24.3 24.5-24.2 6.5 0.1 12.3 2.7 16.7 6.9l-6.9 6.9c-2.6-2.5-6.1-4-9.9-4-8.1-0.1-14.7 6.4-14.8 14.4 0 8.1 6.5 14.7 14.6 14.8 4.7 0 9-2.3 11.7-5.8l-11.7-0.1 0.1-9.7h4.8l9.8 0.1z"/>
			<path id="&lt;Compound Path&gt;" fill-rule="evenodd" class="s0" d="m817.7 1044.5c-13.4 0-24.3-10.9-24.3-24.3 0-13.5 10.9-24.4 24.3-24.4 13.5 0 24.4 10.9 24.4 24.4 0 13.4-10.9 24.3-24.4 24.3zm14.6-24.3c0-8.1-6.5-14.6-14.6-14.6-8.1 0-14.6 6.5-14.6 14.6 0 8.1 6.5 14.6 14.6 14.6 8.1 0 14.6-6.5 14.6-14.6z"/>
			<path id="&lt;Path&gt;" class="s0" d="m492.1 612.8c-0.8-0.8-1.3-1.9-1.3-3.1 0-1.2 0.5-2.4 1.3-3.3 1.9-1.7 4.7-1.7 6.4 0 0.9 0.9 1.4 2.1 1.4 3.3 0 1.2-0.5 2.3-1.4 3.1-0.9 0.9-2 1.4-3.2 1.4-1.2 0-2.4-0.5-3.2-1.4z"/>
			<path id="&lt;Path&gt;" class="s0" d="m527 595.5c-0.8-0.8-1.3-1.9-1.3-3.1 0-1.3 0.5-2.4 1.3-3.3 1.9-1.7 4.7-1.7 6.4 0 0.9 0.9 1.4 2 1.4 3.3 0 1.2-0.5 2.3-1.4 3.1-0.8 0.9-2 1.4-3.2 1.4-1.2 0-2.3-0.5-3.2-1.4z"/>
			<path id="&lt;Path&gt;" class="s0" d="m649.7 555.7c-0.7-0.7-1.4-1.9-1.4-3.2 0-1.2 0.5-2.3 1.4-3.3 0.7-0.7 1.8-1.2 3-1.2 1.3 0 2.6 0.4 3.4 1.2 1 1.1 1.4 2.2 1.4 3.3 0 1.2-0.6 2.4-1.5 3.2-0.8 0.8-1.9 1.3-3.1 1.3-1.2 0-2.4-0.5-3.2-1.3z"/>
			<path id="&lt;Path&gt;" class="s0" d="m604.8 576.1c-0.8-0.7-1.3-2-1.3-3.1 0-1.2 0.5-2.3 1.4-3.2 1.7-1.7 4.6-1.7 6.4 0 0.9 0.8 1.4 2 1.4 3.2 0 1.2-0.5 2.4-1.4 3.3-0.9 0.8-2 1.3-3.2 1.3-1.3 0-2.5-0.5-3.3-1.5z"/>
			<path id="&lt;Path&gt;" class="s0" d="m635.1 604.3c-0.8-0.7-1.3-1.9-1.3-3.2 0-1.2 0.5-2.4 1.5-3.3 0.7-0.7 1.9-1.2 3.1-1.1 1.3 0 2.4 0.5 3.2 1.3 0.8 0.7 1.3 1.9 1.3 3.1 0 1.3-0.5 2.5-1.3 3.3-1 0.9-2.2 1.3-3.3 1.3-1.1 0-2.3-0.5-3.2-1.4z"/>
			<path id="&lt;Path&gt;" class="s0" d="m656.1 569.9c0.8 0.6 1.4 1.8 1.4 3.1 0 1.2-0.5 2.4-1.4 3.3-1 0.8-2.2 1.3-3.2 1.3-1.1 0-2.3-0.5-3.2-1.4-0.8-0.7-1.3-1.9-1.3-3.2 0-1.3 0.5-2.5 1.4-3.3 0.8-0.7 2-1.2 3.2-1.2 1.2 0 2.4 0.5 3.1 1.4z"/>
			<path id="&lt;Path&gt;" class="s0" d="m565.3 616.2c-0.8-0.8-1.3-2-1.3-3.2 0-1.2 0.5-2.3 1.4-3.2 1.6-1.6 4.7-1.6 6.4 0 0.8 0.8 1.3 2 1.3 3.2 0 1.2-0.5 2.4-1.3 3.2-0.9 0.9-2.1 1.4-3.3 1.4-1.1 0-2.3-0.5-3.2-1.4z"/>
			<path id="&lt;Path&gt;" class="s0" d="m538.3 635.3c-0.9-1-1.3-2.1-1.3-3.3 0-1.3 0.4-2.5 1.2-3.3 1.7-1.7 4.7-1.7 6.5 0 0.8 0.9 1.3 2.1 1.3 3.3 0 1.2-0.5 2.4-1.3 3.2-0.9 0.9-2 1.4-3.2 1.4q-1.7 0-3.2-1.3z"/>
			<path id="&lt;Path&gt;" class="s0" d="m575.8 632.1c0.9 1 1.3 2.2 1.3 3.3 0 1.2-0.5 2.4-1.3 3.2-0.9 0.9-2 1.4-3.2 1.4q-1.7 0-3.2-1.3c-0.9-1-1.3-2.1-1.3-3.3 0-1.3 0.4-2.5 1.2-3.3 1.7-1.7 4.7-1.7 6.5 0z"/>
			<path id="&lt;Path&gt;" class="s0" d="m601.6 631.8c-0.9-1-1.3-2-1.3-3.3 0-1.3 0.4-2.4 1.2-3.2 1.7-1.7 4.7-1.7 6.5 0 0.8 0.9 1.3 2.1 1.3 3.2 0 1.3-0.5 2.4-1.4 3.3-0.8 0.9-2 1.3-3.1 1.3q-1.8 0-3.2-1.3z"/>
			<path id="&lt;Path&gt;" class="s0" d="m611.7 594.5c1.7-1.7 4.6-1.7 6.5 0 0.8 0.9 1.2 2.1 1.2 3.3 0 1.2-0.5 2.4-1.3 3.2-0.9 0.9-2 1.3-3.2 1.3q-1.7 0-3.2-1.2c-0.9-1-1.3-2.1-1.3-3.3 0-1.3 0.5-2.5 1.3-3.3z"/>
			<path id="&lt;Path&gt;" class="s0" d="m696.7 509.9c-0.8-0.8-1.3-2-1.3-3.2 0-1.2 0.5-2.4 1.3-3.2 0.8-0.8 1.9-1.3 3.1-1.3 1.3 0 2.5 0.4 3.3 1.3 0.9 0.8 1.4 2 1.4 3.2 0 1.3-0.5 2.5-1.4 3.2-0.8 0.8-1.9 1.3-3.1 1.3-1.2 0-2.4-0.5-3.3-1.3z"/>
			<path id="&lt;Path&gt;" class="s0" d="m693.3 548.8c-0.8-0.8-1.3-1.9-1.3-3.1 0-1.2 0.5-2.4 1.4-3.3 0.8-0.8 2-1.2 3.2-1.2 1.3 0 2.4 0.5 3.2 1.3 0.7 0.7 1.3 1.9 1.3 3.2q0 1.7-1.3 3.2c-0.9 0.9-2 1.4-3.2 1.4-1.3 0-2.5-0.6-3.3-1.5z"/>
			<path id="&lt;Path&gt;" class="s0" d="m677.6 588.7c-0.7-0.7-1.2-1.9-1.2-3.1 0-1.2 0.5-2.4 1.3-3.3 0.7-0.7 1.8-1.2 3-1.2 1.3-0.1 2.5 0.4 3.4 1.2 0.9 0.9 1.4 2.1 1.4 3.3 0 1.3-0.6 2.5-1.6 3.3-0.7 0.7-1.8 1.2-3 1.2-1.2 0-2.4-0.5-3.3-1.4z"/>
			<path id="&lt;Path&gt;" class="s0" d="m722.7 439.5c-0.7-0.8-1.2-2-1.2-3.2 0-1.2 0.5-2.4 1.3-3.2 0.7-0.8 1.8-1.3 3-1.3 1.3 0 2.6 0.4 3.4 1.2 0.9 0.9 1.4 2.1 1.4 3.3 0 1.3-0.6 2.6-1.6 3.3-0.7 0.7-1.8 1.2-3 1.2-1.2 0-2.4-0.5-3.3-1.3z"/>
			<path id="&lt;Path&gt;" class="s0" d="m748.4 461.9c-0.7-0.6-1.2-1.8-1.2-3.1 0-1.2 0.5-2.3 1.3-3.1 0.8-0.9 2-1.4 3.2-1.4 1.3 0 2.5 0.5 3.3 1.4 0.8 0.8 1.3 1.9 1.3 3.1 0 1.3-0.5 2.4-1.4 3.3-0.8 0.8-1.9 1.3-3.1 1.3-1.4 0-2.7-0.5-3.4-1.5z"/>
			<path id="&lt;Path&gt;" class="s0" d="m739 499.1c-0.8-0.7-1.3-1.9-1.3-3.1 0-1.2 0.5-2.4 1.4-3.3 0.7-0.8 2-1.3 3.2-1.2 1.2 0 2.4 0.5 3.1 1.3 0.8 0.7 1.3 1.9 1.3 3.2 0 1.2-0.4 2.3-1.3 3.1-0.9 1-2 1.5-3.2 1.5-1.1 0-2.3-0.6-3.2-1.5z"/>
			<path id="&lt;Path&gt;" class="s0" d="m605.4 94.4c1.1-9.6-3.4-19.1-13.5-28.8-9.5-9.7-23-19-30.1-32.6 12.9 7.8 26.1 11.2 40.3 18.1 7 3.5 14.3 8.3 20.4 15.5 6.1 7 10.1 16.6 11.3 26.2 3.7 39.7-25.7 68.1-46.6 85.8-10.8 9.3-20.5 18-27.2 27.2-6.7 9.2-10.4 19.3-11.2 31.3-1.4 24.1 9 51.1 24.9 76.1-13.4-6.9-25-17.3-34.6-29.8-9.4-12.5-16.6-27.7-18.8-44.9-2.5-16.9 1.5-36.2 10.8-51.3 9.1-15.2 21.3-26.3 32.2-35.9 5.5-4.8 10.9-9.4 15.8-13.9 4.8-4.2 8.7-8.5 12.6-13.3 7.5-9.4 12.9-20 13.7-29.7z"/>
			<path id="&lt;Path&gt;" class="s0" d="m457.6 244.2c-3-10.5-2.9-22.1-0.4-33 2.8-11 8.5-21.1 15.6-29.5 14.7-15.7 30.1-26.8 42.6-40.9 5.9-6.9 11.4-14.3 13-22.7 1.8-8.4-1.7-17.6-7.5-25.9 8.4 5.2 15.8 14.6 16.3 26.4 0.3 11.6-4.8 22.1-10.6 30.8-11.6 17.6-28 30.7-40.1 44.2-11.7 13-17.2 30.1-15 47.9 2.2 17.9 10.9 35.5 22.8 51.6-17.1-10.6-31.2-27.7-36.7-48.9z"/>
			<path id="&lt;Path&gt;" class="s0" d="m648.2 170.4c12.6-10.4 23.2-22.3 24.4-40.3 3.2 8.2 3.1 18 0.1 26.9-3.2 9-8.7 16.7-14.6 23.4-11.8 13.4-25.6 24.1-33.7 36.2-8.1 12.1-10.7 27-7.5 42.3 3 15.3 10.6 30.3 20.6 44.7-15.2-8.9-27.7-23.1-34.3-40.8-3.4-8.8-4.6-18.6-3.8-28.5 0.8-9.8 4.4-19.5 9.9-27.7 11.3-16.4 26.4-25.6 38.9-36.2z"/>
			<path id="&lt;Path&gt;" class="s0" d="m165 928.8l-27.1 8-32-107.7-37.9 11.2-8-27 102.8-30.5 8 27-37.9 11.2z"/>
			<path id="&lt;Path&gt;" class="s0" d="m230.7 910.1l-29.2-137.5 27.4-5.9 11.6 55 50.1-10.6-11.7-55 27.4-5.8 29.2 137.5-27.3 5.8-11.7-54.9-50.1 10.6 11.7 55z"/>
			<path id="&lt;Path&gt;" class="s0" d="m432.4 759.6l-56.2 7.9 3.9 27.7 56.2-7.9 3.9 27.9-56.2 7.9 3.9 27.8 56.2-7.9 4 27.9-84 11.8-19.6-139.2 84-11.9z"/>
			<path id="&lt;Path&gt;" class="s0" d="m576.1 790.2c0.3 23.3 19.5 41.8 42.8 41.5 11-0.2 21.1-4.6 28.4-11.6l20.2 19.6c-12.5 12.2-29.4 19.9-48.1 20.1-38.8 0.6-70.8-30.5-71.3-69.2-0.6-38.8 30.5-70.8 69.2-71.3 18.8-0.3 35.9 6.9 48.7 18.8l-19.5 20.3c-7.6-7-17.8-11.1-28.8-10.9-23.3 0.3-42 19.5-41.6 42.7z"/>
			<path id="&lt;Compound Path&gt;" fill-rule="evenodd" class="s0" d="m783.6 726.4l37.4 144.7-29.7-2.8-10.6-40.5-43-4-17.9 37.8-29.7-2.8 63.7-135.2zm-10.3 72.4l-8.5-32.7-14.2 30.6z"/>
			<path id="&lt;Path&gt;" class="s0" d="m844.7 875.1l28.9-137.6 83 17.4-5.8 27.6-55.6-11.7-5.7 27.4 55.5 11.7-5.8 27.6-55.5-11.7-11.6 55z"/>
			<path id="&lt;Path&gt;" class="s0" d="m1016.3 800.8l-8.7 26.6 53.9 17.6-8.8 26.8-53.9-17.6-8.7 26.6 53.9 17.6-8.7 26.8-80.6-26.3 43.8-133.6 80.5 26.3-8.8 26.8z"/>
			<path id="&lt;Path&gt;" class="s0" d="m1054.2 989.1l-8.9 21.4c-236.8-98.7-468.1-93.5-620.5-71.8-165.5 23.6-276.2 71.2-277.3 71.7l-9.3-21.3c4.6-2 114.2-49.2 282.6-73.3 155.4-22.2 391.5-27.6 633.4 73.3z"/>
		</g>
	</g>
</svg>